<?xml version="1.0" encoding="UTF-8" standalone="no"?>
<svg width="972px" height="117px" viewBox="0 0 972 117" version="1.1" xmlns="http://www.w3.org/2000/svg" xmlns:xlink="http://www.w3.org/1999/xlink" xmlns:sketch="http://www.bohemiancoding.com/sketch/ns">
    <!-- Generator: Sketch 3.5.1 (25234) - http://www.bohemiancoding.com/sketch -->
    <title>Group 2</title>
    <desc>Created with Sketch.</desc>
    <defs></defs>
    <g id="Page-1" stroke="none" stroke-width="1" fill="none" fill-rule="evenodd" sketch:type="MSPage">
        <g id="Group-2" sketch:type="MSLayerGroup" transform="translate(-4.000000, 1.000000)" fill="#696969">
            <g id="podlove" transform="translate(443.000000, 0.000000)" sketch:type="MSShapeGroup">
                <g id="Page-1">
                    <g id="podlove_text">
                        <g id="Page-1">
                            <g id="podlove_text">
                                <g id="Page-1">
                                    <g id="Group-2">
                                        <g id="podlove_logo" transform="translate(106.000000, 16.000000)">
                                            <g id="Group">
                                                <path d="M48.403,64.482 L10.601,64.482 L10.601,73.483 L10.601,82.283 L0,82.283 L0,26.28 L0,17.479 L48.403,17.479 C59.203,17.479 63.204,23.479 63.204,32.08 L63.204,49.882 C63.204,58.482 59.203,64.482 48.403,64.482 L48.403,64.482 L48.403,64.482 L48.403,64.482 L48.403,64.482 Z M52.603,30.28 C52.603,27.679 51.603,26.679 49.303,26.679 L13.9,26.679 C11.6,26.679 10.6,27.679 10.6,30.28 L10.6,51.681 C10.6,54.282 11.6,55.282 13.9,55.282 L49.302,55.282 C51.602,55.282 52.602,54.282 52.602,51.681 L52.602,30.28 L52.603,30.28 L52.603,30.28 L52.603,30.28 L52.603,30.28 Z" id="Shape"></path>
                                                <path d="M120.002,64.482 L83.199,64.482 C72.598,64.482 69.598,60.082 69.598,50.281 L69.598,31.68 C69.598,21.879 72.598,17.479 83.199,17.479 L120.002,17.479 C130.603,17.479 133.603,21.879 133.603,31.68 L133.603,50.281 C133.603,60.082 130.603,64.482 120.002,64.482 L120.002,64.482 L120.002,64.482 L120.002,64.482 L120.002,64.482 Z M123.002,30.48 C123.002,27.78 122.202,26.679 119.402,26.679 L83.6,26.679 C81,26.679 80.2,27.78 80.2,30.48 L80.2,51.481 C80.2,54.181 81,55.282 83.6,55.282 L119.402,55.282 C122.202,55.282 123.002,54.181 123.002,51.481 L123.002,30.48 L123.002,30.48 L123.002,30.48 L123.002,30.48 L123.002,30.48 Z" id="Shape"></path>
                                                <path d="M154.798,64.482 C143.597,64.482 139.997,58.881 139.997,49.881 L139.997,32.08 C139.997,22.68 143.697,17.479 154.798,17.479 L192.6,17.479 L192.6,0.478 L203.201,0.478 L203.201,55.681 L203.201,64.482 L154.798,64.482 L154.798,64.482 L154.798,64.482 L154.798,64.482 L154.798,64.482 Z M192.601,30.28 C192.601,27.679 191.601,26.679 189.301,26.679 L153.899,26.679 C151.599,26.679 150.599,27.679 150.599,30.28 L150.599,51.681 C150.599,54.282 151.599,55.282 153.899,55.282 L189.301,55.282 C191.601,55.282 192.601,54.282 192.601,51.681 L192.601,30.28 L192.601,30.28 L192.601,30.28 L192.601,30.28 L192.601,30.28 Z" id="Shape"></path>
                                                <path d="M211.097,64.482 L211.097,0.478 L221.698,0.478 L221.698,64.482 L211.097,64.482 L211.097,64.482 L211.097,64.482 L211.097,64.482 L211.097,64.482 Z" id="Shape"></path>
                                                <path d="M279.8,64.482 L242.997,64.482 C232.396,64.482 229.396,60.082 229.396,50.281 L229.396,31.68 C229.396,21.879 232.396,17.479 242.997,17.479 L279.8,17.479 C290.401,17.479 293.401,21.879 293.401,31.68 L293.401,50.281 C293.4,60.082 290.4,64.482 279.8,64.482 L279.8,64.482 L279.8,64.482 L279.8,64.482 L279.8,64.482 Z M282.8,30.48 C282.8,27.78 282,26.679 279.199,26.679 L243.397,26.679 C240.796,26.679 239.997,27.78 239.997,30.48 L239.997,51.481 C239.997,54.181 240.797,55.282 243.397,55.282 L279.199,55.282 C282,55.282 282.8,54.181 282.8,51.481 L282.8,30.48 L282.8,30.48 L282.8,30.48 L282.8,30.48 L282.8,30.48 Z" id="Shape"></path>
                                                <path d="M334.795,64.482 L334.495,64.482 L322.694,64.482 L322.394,64.482 L293.592,17.479 L305.693,17.479 L328.594,54.881 L351.495,17.479 L363.596,17.479 L334.795,64.482 L334.795,64.482 L334.795,64.482 L334.795,64.482 L334.795,64.482 Z" id="Shape"></path>
                                                <path d="M374.391,46.081 L374.391,50.481 C374.391,53.881 375.992,55.282 379.791,55.282 L417.793,55.282 L417.793,64.482 L377.391,64.482 C366.79,64.482 363.79,60.182 363.79,50.281 L363.79,31.68 C363.79,21.879 366.19,17.479 377.391,17.479 L413.293,17.479 C424.494,17.479 426.894,21.379 426.894,31.68 L426.894,46.08 L374.391,46.08 L374.391,46.081 L374.391,46.081 L374.391,46.081 L374.391,46.081 Z M416.894,30.48 C416.894,27.78 416.093,26.679 413.494,26.679 L377.792,26.679 C375.191,26.679 374.392,27.78 374.392,30.48 L374.392,36.88 L416.895,36.88 L416.895,30.48 L416.894,30.48 L416.894,30.48 L416.894,30.48 L416.894,30.48 Z" id="Shape"></path>
                                            </g>
                                        </g>
                                        <g id="podlove_signet_1_">
                                            <path d="M56.2476831,6.42857143 C61.0438811,6.42857143 64.9454257,10.3385714 64.9454257,15.1442857 L64.9454257,99.7214286 C64.9454257,104.527143 61.0431683,108.436429 56.2476831,108.436429 L15.6717624,108.436429 C10.8762772,108.436429 6.97473268,104.527143 6.97473268,99.7214286 L6.97473268,15.1442857 C6.97473268,10.3385714 10.8762772,6.42857143 15.6717624,6.42857143 L56.2476831,6.42857143 L56.2476831,6.42857143 L56.2476831,6.42857143 L56.2476831,6.42857143 L56.2476831,6.42857143 Z M56.2476831,0 L15.6717624,0 C7.32617822,0 0.55889109,6.78071429 0.55889109,15.1442857 L0.55889109,99.7214286 C0.55889109,108.084286 7.32617822,114.865 15.6717624,114.865 L56.2476831,114.865 C64.5954059,114.865 71.3612673,108.085 71.3612673,99.7214286 L71.3612673,15.1442857 C71.3612673,6.78071429 64.5954059,0 56.2476831,0 L56.2476831,0 L56.2476831,0 L56.2476831,0 L56.2476831,0 L56.2476831,0 Z" id="Shape" stroke="#696969" stroke-width="2"></path>
                                            <path d="M35.900198,64.58 C44.983604,64.58 52.3454257,71.9564286 52.3454257,81.0571429 C52.3454257,90.1571428 44.983604,97.535 35.900198,97.535 C26.8196435,97.535 19.456396,90.1571428 19.456396,81.0571429 C19.456396,71.9564286 26.8196435,64.58 35.900198,64.58 L35.900198,64.58 L35.900198,64.58 L35.900198,64.58 L35.900198,64.58 Z M35.900198,58.1514286 C23.2952079,58.1514286 13.0405545,68.4271429 13.0405545,81.0571429 C13.0405545,93.6878571 23.2952079,103.963571 35.900198,103.963571 C48.5059011,103.963571 58.7612673,93.6878571 58.7612673,81.0571429 C58.7619802,68.4271429 48.5059011,58.1514286 35.900198,58.1514286 L35.900198,58.1514286 L35.900198,58.1514286 L35.900198,58.1514286 L35.900198,58.1514286 L35.900198,58.1514286 Z" id="Shape" stroke="#696969"></path>
                                            <path d="M50.2546276,30.7442602 L33.4529643,47.5892603 L37.9911884,47.5894532 L21.190238,30.7423103 C19.8481449,29.371472 19.074297,27.5145334 19.074297,25.5278571 C19.074297,21.398338 22.415446,18.0507143 26.5366336,18.0507143 C29.2056159,18.0507143 31.6250472,19.4626325 32.9624472,21.7232982 L35.7225096,26.3887524 L38.4817885,21.7228329 C39.8181187,19.4631085 42.2385025,18.0507143 44.9066139,18.0507143 C49.0290731,18.0507143 52.3703763,21.3981836 52.3703763,25.5278571 C52.3703763,27.5149997 51.5961613,29.3734744 50.2333618,30.7657828 L50.2546276,30.7442602 L50.2546276,30.7442602 L50.2546276,30.7442602 L50.2546276,30.7442602 Z M54.8139254,35.2670743 C57.3410495,32.68523 58.7862178,29.2161562 58.7862178,25.5278571 C58.7862178,17.8475823 52.5722458,11.6221429 44.9066139,11.6221429 C39.9488936,11.6221429 35.4422405,14.2519616 32.962172,18.4457385 L38.4815132,18.4452734 C36.0003767,14.2512996 31.4951128,11.6221429 26.5366336,11.6221429 C18.8721408,11.6221429 12.6584554,17.8478696 12.6584554,25.5278571 C12.6584554,29.2161807 14.103632,32.6840516 16.6311638,35.2653562 L33.4527719,52.1334041 L35.7217877,54.4086582 L37.9909962,52.1335969 L54.7926595,35.2885968 L54.8139254,35.2670743 L54.8139254,35.2670743 L54.8139254,35.2670743 L54.8139254,35.2670743 Z" id="Shape" stroke="#696969"></path>
                                            <rect id="Rectangle-1" x="33" y="46" width="6" height="6"></rect>
                                            <rect id="Rectangle-1" x="33" y="16" width="6" height="6"></rect>
                                            <path d="M35.9009109,75.1592858 C39.1523169,75.1592858 41.7892277,77.8007143 41.7892277,81.0571429 C41.7892277,84.3157143 39.1523169,86.9557143 35.9009109,86.9557143 C32.6502178,86.9557143 30.0147327,84.3157143 30.0147327,81.0571429 C30.0147327,77.8007143 32.6502178,75.1592858 35.9009109,75.1592858 L35.9009109,75.1592858 L35.9009109,75.1592858 L35.9009109,75.1592858 L35.9009109,75.1592858 Z" id="Shape"></path>
                                        </g>
                                    </g>
                                </g>
                            </g>
                        </g>
                    </g>
                </g>
            </g>
            <text id="powered-by" sketch:type="MSTextLayer" font-family="Roboto" font-size="79" font-weight="420" line-spacing="64" letter-spacing="0.25">
                <tspan x="0" y="80">powered b</tspan>
                <tspan x="369.630859" y="80">y</tspan>
            </text>
        </g>
    </g>
</svg>